<svg width="97" height="97" viewBox="0 0 97 97" fill="none" xmlns="http://www.w3.org/2000/svg">
<g clip-path="url(#clip0_0_161)">
<path d="M96.4277 33.4672C95.1729 29.759 92.1597 27.4215 89.5 25.3593C88.0794 24.2578 86.7371 23.2158 85.9611 22.1957C85.1694 21.1568 84.5467 19.6015 83.8865 17.9555C82.6631 14.9108 81.2769 11.4593 78.0634 9.21872C74.9187 7.022 71.1295 6.8186 67.7877 6.64336C65.9102 6.54323 64.1329 6.44622 62.7812 6.02378C61.5452 5.63888 60.1121 4.74705 58.6008 3.80202C55.7471 2.01836 52.5117 0 48.4972 0C44.4795 0 41.2503 2.01836 38.3966 3.80202C36.8822 4.74705 35.4522 5.63888 34.2131 6.02691C32.8645 6.44622 31.0872 6.54323 29.2067 6.64336C25.8649 6.82173 22.0787 7.022 18.9309 9.21872C15.7206 11.4593 14.3344 14.9108 13.1109 17.9524C12.4507 19.5984 11.8249 21.1568 11.0301 22.1988C10.2573 23.222 8.91491 24.2641 7.4912 25.3656C4.83778 27.4277 1.82452 29.7621 0.57291 33.4672C-0.647413 37.0689 0.331974 40.6237 1.19559 43.7592C1.67746 45.5053 2.13117 47.1544 2.13117 48.5031C2.13117 49.855 1.67746 51.5009 1.19559 53.2502C0.331974 56.3857 -0.647413 59.9374 0.57291 63.5422C1.82765 67.2472 4.83778 69.5816 7.49433 71.6407C8.91491 72.7422 10.2573 73.7842 11.0333 74.8044C11.8249 75.8464 12.4476 77.4016 13.1109 79.0507C14.3344 82.0955 15.7237 85.547 18.9372 87.7907C22.0819 89.9843 25.8649 90.1845 29.2067 90.3598C31.0872 90.4599 32.8645 90.5569 34.2131 90.9762C35.4522 91.3611 36.8791 92.2561 38.3935 93.198C41.2472 94.9817 44.4826 97 48.4972 97C52.5148 97 55.7503 94.9817 58.6039 93.198C60.1184 92.253 61.5452 91.3643 62.7843 90.9762C64.1329 90.5569 65.9102 90.4599 67.7908 90.3598C71.1326 90.1814 74.9156 89.9811 78.0634 87.7875C81.2769 85.5439 82.6631 82.0923 83.8896 79.0413C84.5499 77.3954 85.1757 75.8401 85.9611 74.8044C86.7371 73.7811 88.0794 72.7422 89.5 71.6407C92.1566 69.5785 95.1729 67.2441 96.4277 63.5391C97.648 59.9342 96.6655 56.3825 95.8019 53.2439C95.3169 51.4978 94.8632 49.8487 94.8632 48.4969C94.8632 47.1482 95.3169 45.4959 95.8019 43.753C96.6655 40.6206 97.6449 37.0658 96.4277 33.4672ZM88.0106 55.3968C88.5926 57.5091 89.1965 59.6964 88.7709 60.945C88.2985 62.3469 86.3929 63.8239 84.5499 65.2539C82.7788 66.6277 80.9484 68.0452 79.5247 69.9196C78.0822 71.8222 77.2217 73.9626 76.3925 76.0279C75.5101 78.2215 74.6778 80.293 73.4387 81.1567C72.1871 82.0329 69.8465 82.1549 67.3652 82.2895C65.0685 82.4115 62.6967 82.5367 60.3875 83.2595C58.1534 83.9542 56.2102 85.1684 54.3297 86.3418C52.2082 87.6686 50.2056 88.9172 48.5034 88.9172C46.8012 88.9172 44.7986 87.6655 42.6803 86.345C40.7997 85.1715 38.8535 83.9542 36.6225 83.2595C34.3101 82.5398 31.9383 82.4115 29.6416 82.2895C27.1603 82.1581 24.8198 82.0329 23.5713 81.1598C22.3322 80.293 21.4999 78.2246 20.6175 76.031C19.7852 73.9657 18.9247 71.8222 17.4759 69.9196C16.0585 68.0483 14.228 66.6277 12.4538 65.2539C10.614 63.827 8.70839 62.3469 8.23591 60.9481C7.81036 59.6964 8.41426 57.5091 8.99626 55.3937C9.56888 53.3096 10.2228 50.9471 10.2228 48.5031C10.2228 46.0592 9.57201 43.6966 8.99626 41.6126C8.41739 39.5003 7.81349 37.3161 8.23591 36.0613C8.70839 34.6625 10.6108 33.1855 12.4538 31.7586C14.2249 30.3817 16.0616 28.9611 17.4759 27.0898C18.9216 25.1841 19.7852 23.0406 20.6175 20.9721C21.4999 18.7817 22.3291 16.7132 23.565 15.8496C24.8198 14.9734 27.1634 14.8482 29.6447 14.7137C31.9383 14.5916 34.3101 14.4633 36.6194 13.7467C38.8535 13.052 40.7997 11.8348 42.6834 10.6613C44.8018 9.33451 46.8044 8.08594 48.5034 8.08594C50.2056 8.08594 52.2051 9.33451 54.3266 10.6582C56.2102 11.8348 58.1565 13.052 60.3906 13.7405C62.703 14.4602 65.0716 14.5885 67.3652 14.7105C69.8465 14.842 72.1902 14.9671 73.4449 15.8464C74.6747 16.7101 75.5038 18.7754 76.3862 20.9659C77.2186 23.0343 78.079 25.1778 79.5247 27.0804C80.9452 28.9485 82.7757 30.3692 84.5467 31.7461C86.3866 33.173 88.2922 34.6531 88.7678 36.055C89.1934 37.3067 88.5863 39.4909 88.0075 41.6032C87.4317 43.6904 86.7777 46.0529 86.7777 48.5C86.7809 50.9439 87.4348 53.3096 88.0106 55.3968Z" fill="#051951"/>
<path d="M66.6828 48.5C66.6778 53.322 64.7602 57.9451 61.3508 61.3548C57.9413 64.7644 53.3185 66.6822 48.4969 66.6871C43.6752 66.6822 39.0524 64.7644 35.643 61.3548C32.2335 57.9451 30.3159 53.322 30.3109 48.5C30.3159 43.678 32.2335 39.055 35.643 35.6453C39.0524 32.2356 43.6752 30.3179 48.4969 30.3129H52.5396V22.2301H48.4969C34.0126 22.2301 22.2286 34.0148 22.2286 48.5032C22.2286 62.9915 34.0126 74.7762 48.4969 74.7762C62.9812 74.7762 74.7682 62.9915 74.7682 48.5032V44.4602H66.6859L66.6828 48.5Z" fill="#051951"/>
<path d="M44.4573 38.7431L38.7437 44.4571L48.5 54.214L70.3813 32.3313L64.6677 26.6173L48.5031 42.7829L44.4573 38.7431Z" fill="#051951"/>
</g>
<defs>
<clipPath id="clip0_0_161">
<rect width="97" height="97" fill="white"/>
</clipPath>
</defs>
</svg>
