<svg width="20" height="21" viewBox="0 0 20 21" fill="none" xmlns="http://www.w3.org/2000/svg">
<path fill-rule="evenodd" clip-rule="evenodd" d="M10 2.16663C5.4 2.16663 1.66666 5.89996 1.66666 10.5C1.66666 15.1 5.4 18.8333 10 18.8333C14.6 18.8333 18.3333 15.1 18.3333 10.5C18.3333 5.89996 14.6 2.16663 10 2.16663ZM10 17.1666C6.325 17.1666 3.33333 14.175 3.33333 10.5C3.33333 6.82496 6.325 3.83329 10 3.83329C13.675 3.83329 16.6667 6.82496 16.6667 10.5C16.6667 14.175 13.675 17.1666 10 17.1666ZM8.33333 12.3083L13.825 6.81664L15 7.99997L8.33333 14.6666L5 11.3333L6.175 10.1583L8.33333 12.3083Z" fill="#F18F01"/>
</svg>
