<svg width="316" height="84" viewBox="0 0 316 84" fill="none" xmlns="http://www.w3.org/2000/svg">
<path d="M83.4364 37C83.0956 37 82.8021 36.8864 82.556 36.6592C82.3288 36.4131 82.2152 36.1196 82.2152 35.7788V17.2904C82.2152 17.12 82.272 16.978 82.3856 16.8644C82.4992 16.7508 82.6412 16.694 82.8116 16.694H85.0836C85.254 16.694 85.396 16.7508 85.5096 16.8644C85.6232 16.978 85.68 17.12 85.68 17.2904V33.6772H92.2688C92.4392 33.6772 92.5812 33.734 92.6948 33.8476C92.8084 33.9612 92.8652 34.1032 92.8652 34.2736V36.4036C92.8652 36.574 92.8084 36.716 92.6948 36.8296C92.5812 36.9432 92.4392 37 92.2688 37H83.4364ZM102.404 37.3692C101.041 37.3692 99.7822 37.0379 98.6273 36.3752C97.4724 35.6936 96.5541 34.7848 95.8725 33.6488C95.2098 32.4939 94.8785 31.2348 94.8785 29.8716V23.8224C94.8785 22.4592 95.2098 21.2096 95.8725 20.0736C96.5541 18.9187 97.4724 18.0099 98.6273 17.3472C99.7822 16.6656 101.041 16.3248 102.404 16.3248C103.768 16.3248 105.027 16.6656 106.182 17.3472C107.337 18.0099 108.245 18.9187 108.908 20.0736C109.59 21.2096 109.93 22.4592 109.93 23.8224V29.8716C109.93 31.2348 109.59 32.4939 108.908 33.6488C108.245 34.7848 107.337 35.6936 106.182 36.3752C105.027 37.0379 103.768 37.3692 102.404 37.3692ZM102.404 34.0464C103.124 34.0464 103.796 33.8571 104.421 33.4784C105.046 33.0997 105.538 32.5885 105.898 31.9448C106.276 31.3011 106.466 30.61 106.466 29.8716V23.8224C106.466 23.084 106.276 22.3929 105.898 21.7492C105.538 21.1055 105.046 20.5943 104.421 20.2156C103.796 19.8369 103.124 19.6476 102.404 19.6476C101.685 19.6476 101.013 19.8369 100.388 20.2156C99.7633 20.5943 99.2616 21.1055 98.8829 21.7492C98.5232 22.3929 98.3433 23.084 98.3433 23.8224V29.8716C98.3433 30.61 98.5232 31.3011 98.8829 31.9448C99.2616 32.5885 99.7633 33.0997 100.388 33.4784C101.013 33.8571 101.685 34.0464 102.404 34.0464ZM121.235 37.3692C119.872 37.3692 118.613 37.0379 117.458 36.3752C116.322 35.6936 115.413 34.7848 114.732 33.6488C114.069 32.4939 113.738 31.2348 113.738 29.8716V23.8224C113.738 22.4592 114.069 21.2096 114.732 20.0736C115.413 18.9187 116.322 18.0099 117.458 17.3472C118.613 16.6656 119.872 16.3248 121.235 16.3248C122.428 16.3248 123.536 16.5425 124.558 16.978C125.581 17.3945 126.452 18.0099 127.171 18.824C127.285 18.9565 127.341 19.1175 127.341 19.3068C127.341 19.4961 127.266 19.6855 127.114 19.8748L125.865 21.1812C125.713 21.3327 125.562 21.4084 125.41 21.4084C125.221 21.4084 125.051 21.3232 124.899 21.1528C123.952 20.1493 122.741 19.6476 121.264 19.6476C120.544 19.6476 119.872 19.8369 119.247 20.2156C118.623 20.5943 118.121 21.1055 117.742 21.7492C117.383 22.3929 117.203 23.084 117.203 23.8224V29.8716C117.203 30.61 117.383 31.3011 117.742 31.9448C118.121 32.5885 118.623 33.0997 119.247 33.4784C119.872 33.8571 120.544 34.0464 121.264 34.0464C121.983 34.0464 122.655 33.8665 123.28 33.5068C123.905 33.1471 124.397 32.6548 124.757 32.03C125.117 31.4052 125.297 30.7236 125.297 29.9852V28.5936H121.491C121.321 28.5936 121.179 28.5368 121.065 28.4232C120.951 28.3096 120.895 28.1676 120.895 27.9972V25.9524C120.895 25.782 120.951 25.64 121.065 25.5264C121.179 25.4128 121.321 25.356 121.491 25.356H127.483C127.824 25.356 128.108 25.4791 128.335 25.7252C128.582 25.9524 128.705 26.2364 128.705 26.5772V29.8716C128.705 31.2348 128.364 32.4939 127.682 33.6488C127.02 34.7848 126.111 35.6936 124.956 36.3752C123.82 37.0379 122.58 37.3692 121.235 37.3692ZM139.763 37.3692C138.399 37.3692 137.14 37.0379 135.985 36.3752C134.831 35.6936 133.912 34.7848 133.231 33.6488C132.568 32.4939 132.237 31.2348 132.237 29.8716V23.8224C132.237 22.4592 132.568 21.2096 133.231 20.0736C133.912 18.9187 134.831 18.0099 135.985 17.3472C137.14 16.6656 138.399 16.3248 139.763 16.3248C141.126 16.3248 142.385 16.6656 143.54 17.3472C144.695 18.0099 145.604 18.9187 146.266 20.0736C146.948 21.2096 147.289 22.4592 147.289 23.8224V29.8716C147.289 31.2348 146.948 32.4939 146.266 33.6488C145.604 34.7848 144.695 35.6936 143.54 36.3752C142.385 37.0379 141.126 37.3692 139.763 37.3692ZM139.763 34.0464C140.482 34.0464 141.154 33.8571 141.779 33.4784C142.404 33.0997 142.896 32.5885 143.256 31.9448C143.635 31.3011 143.824 30.61 143.824 29.8716V23.8224C143.824 23.084 143.635 22.3929 143.256 21.7492C142.896 21.1055 142.404 20.5943 141.779 20.2156C141.154 19.8369 140.482 19.6476 139.763 19.6476C139.043 19.6476 138.371 19.8369 137.746 20.2156C137.121 20.5943 136.62 21.1055 136.241 21.7492C135.881 22.3929 135.701 23.084 135.701 23.8224V29.8716C135.701 30.61 135.881 31.3011 136.241 31.9448C136.62 32.5885 137.121 33.0997 137.746 33.4784C138.371 33.8571 139.043 34.0464 139.763 34.0464Z" fill="#FEFEFE"/>
<path d="M87.9688 67H81.5V55.5781H87.9688V57.1562H83.375V60.2578H87.6797V61.8281H83.375V65.4141H87.9688V67ZM95.6094 58.3516H97.6328L94.0547 62.5078L97.9375 67H95.8203L92.0938 62.6094V67H90.25V58.3516H92.0938V62.5469L95.6094 58.3516ZM102.828 67.1562C102.01 67.1562 101.302 66.9974 100.703 66.6797C100.104 66.362 99.6432 65.875 99.3203 65.2188C98.9974 64.5625 98.8359 63.7292 98.8359 62.7188C98.8359 61.6667 99.013 60.8073 99.3672 60.1406C99.7214 59.474 100.211 58.9818 100.836 58.6641C101.466 58.3464 102.188 58.1875 103 58.1875C103.516 58.1875 103.982 58.2396 104.398 58.3438C104.82 58.4427 105.177 58.5651 105.469 58.7109L104.922 60.1797C104.604 60.0495 104.279 59.9401 103.945 59.8516C103.612 59.763 103.292 59.7188 102.984 59.7188C102.479 59.7188 102.057 59.8307 101.719 60.0547C101.385 60.2786 101.135 60.612 100.969 61.0547C100.807 61.4974 100.727 62.0469 100.727 62.7031C100.727 63.3385 100.81 63.875 100.977 64.3125C101.143 64.7448 101.391 65.0729 101.719 65.2969C102.047 65.5156 102.451 65.625 102.93 65.625C103.404 65.625 103.828 65.5677 104.203 65.4531C104.578 65.3385 104.932 65.1901 105.266 65.0078V66.6016C104.938 66.7891 104.586 66.9271 104.211 67.0156C103.836 67.1094 103.375 67.1562 102.828 67.1562ZM114.852 58.3516V67H113V59.8047H109.141V67H107.297V58.3516H114.852ZM120.93 58.1875C121.701 58.1875 122.362 58.3464 122.914 58.6641C123.466 58.9818 123.891 59.4323 124.188 60.0156C124.484 60.599 124.633 61.2969 124.633 62.1094V63.0938H118.859C118.88 63.9323 119.104 64.5781 119.531 65.0312C119.964 65.4844 120.568 65.7109 121.344 65.7109C121.896 65.7109 122.391 65.6589 122.828 65.5547C123.271 65.4453 123.727 65.2865 124.195 65.0781V66.5703C123.763 66.7734 123.323 66.9219 122.875 67.0156C122.427 67.1094 121.891 67.1562 121.266 67.1562C120.417 67.1562 119.669 66.9922 119.023 66.6641C118.383 66.3307 117.88 65.8359 117.516 65.1797C117.156 64.5234 116.977 63.7083 116.977 62.7344C116.977 61.7656 117.141 60.9427 117.469 60.2656C117.797 59.5885 118.258 59.0729 118.852 58.7188C119.445 58.3646 120.138 58.1875 120.93 58.1875ZM120.93 59.5703C120.352 59.5703 119.883 59.7578 119.523 60.1328C119.169 60.5078 118.961 61.0573 118.898 61.7812H122.836C122.831 61.349 122.758 60.9661 122.617 60.6328C122.482 60.2995 122.273 60.0391 121.992 59.8516C121.716 59.6641 121.362 59.5703 120.93 59.5703ZM131.141 58.1875C132.167 58.1875 132.99 58.5625 133.609 59.3125C134.234 60.0625 134.547 61.1771 134.547 62.6562C134.547 63.6354 134.401 64.4609 134.109 65.1328C133.823 65.7995 133.419 66.3047 132.898 66.6484C132.383 66.987 131.781 67.1562 131.094 67.1562C130.656 67.1562 130.276 67.099 129.953 66.9844C129.63 66.8698 129.354 66.7214 129.125 66.5391C128.896 66.3516 128.703 66.1484 128.547 65.9297H128.438C128.464 66.138 128.487 66.3698 128.508 66.625C128.534 66.875 128.547 67.1042 128.547 67.3125V70.8359H126.703V58.3516H128.203L128.461 59.5469H128.547C128.708 59.3021 128.904 59.0755 129.133 58.8672C129.367 58.6589 129.648 58.4948 129.977 58.375C130.31 58.25 130.698 58.1875 131.141 58.1875ZM130.648 59.6875C130.143 59.6875 129.737 59.7891 129.43 59.9922C129.128 60.1901 128.906 60.4896 128.766 60.8906C128.63 61.2917 128.557 61.7943 128.547 62.3984V62.6562C128.547 63.2969 128.612 63.8411 128.742 64.2891C128.878 64.7318 129.099 65.0703 129.406 65.3047C129.719 65.5339 130.141 65.6484 130.672 65.6484C131.12 65.6484 131.49 65.526 131.781 65.2812C132.078 65.0365 132.299 64.6875 132.445 64.2344C132.591 63.7812 132.664 63.2474 132.664 62.6328C132.664 61.7005 132.497 60.9766 132.164 60.4609C131.836 59.9453 131.331 59.6875 130.648 59.6875ZM143.203 59.7969H140.359V67H138.531V59.7969H135.703V58.3516H143.203V59.7969ZM151.719 58.1875C152.354 58.1875 152.924 58.2734 153.43 58.4453C153.94 58.612 154.344 58.8646 154.641 59.2031C154.938 59.5417 155.086 59.9635 155.086 60.4688C155.086 60.9896 154.935 61.4062 154.633 61.7188C154.336 62.026 153.932 62.2474 153.422 62.3828V62.4531C153.781 62.5417 154.107 62.6693 154.398 62.8359C154.69 62.9974 154.922 63.2161 155.094 63.4922C155.271 63.763 155.359 64.112 155.359 64.5391C155.359 65.0234 155.216 65.4635 154.93 65.8594C154.648 66.2552 154.216 66.5703 153.633 66.8047C153.049 67.0391 152.307 67.1562 151.406 67.1562C150.974 67.1562 150.562 67.1328 150.172 67.0859C149.786 67.0443 149.435 66.9844 149.117 66.9062C148.799 66.8229 148.523 66.724 148.289 66.6094V65.0312C148.648 65.2031 149.083 65.3594 149.594 65.5C150.104 65.6354 150.651 65.7031 151.234 65.7031C151.667 65.7031 152.057 65.6641 152.406 65.5859C152.76 65.5026 153.039 65.3672 153.242 65.1797C153.451 64.9922 153.555 64.7422 153.555 64.4297C153.555 64.1432 153.464 63.9062 153.281 63.7188C153.099 63.5312 152.826 63.3932 152.461 63.3047C152.096 63.2109 151.635 63.1641 151.078 63.1641H150.047V61.8125H150.953C151.719 61.8125 152.318 61.7292 152.75 61.5625C153.188 61.3906 153.406 61.0938 153.406 60.6719C153.406 60.3177 153.253 60.0521 152.945 59.875C152.638 59.6979 152.167 59.6094 151.531 59.6094C151.094 59.6094 150.661 59.6589 150.234 59.7578C149.807 59.8516 149.38 59.987 148.953 60.1641L148.375 58.8125C148.849 58.6198 149.357 58.4688 149.898 58.3594C150.44 58.2448 151.047 58.1875 151.719 58.1875ZM168.562 58.3516V65.5781H169.812V70.0469H168.117V67H162.148V70.0469H160.453V65.5781H161.156C161.594 64.9427 161.958 64.2344 162.25 63.4531C162.547 62.6719 162.776 61.849 162.938 60.9844C163.104 60.1146 163.208 59.237 163.25 58.3516H168.562ZM166.742 59.7578H164.828C164.766 60.4609 164.659 61.1615 164.508 61.8594C164.357 62.5521 164.161 63.2161 163.922 63.8516C163.688 64.4818 163.406 65.0573 163.078 65.5781H166.742V59.7578ZM173.188 58.3516V62.7656C173.188 62.9062 173.182 63.0859 173.172 63.3047C173.167 63.5182 173.156 63.7422 173.141 63.9766C173.125 64.2057 173.109 64.4167 173.094 64.6094C173.078 64.8021 173.065 64.9453 173.055 65.0391L177.406 58.3516H179.641V67H177.883V62.6328C177.883 62.4036 177.888 62.138 177.898 61.8359C177.914 61.5339 177.93 61.2422 177.945 60.9609C177.966 60.6797 177.979 60.4661 177.984 60.3203L173.648 67H171.422V58.3516H173.188ZM184.969 58.1875C185.604 58.1875 186.174 58.2734 186.68 58.4453C187.19 58.612 187.594 58.8646 187.891 59.2031C188.188 59.5417 188.336 59.9635 188.336 60.4688C188.336 60.9896 188.185 61.4062 187.883 61.7188C187.586 62.026 187.182 62.2474 186.672 62.3828V62.4531C187.031 62.5417 187.357 62.6693 187.648 62.8359C187.94 62.9974 188.172 63.2161 188.344 63.4922C188.521 63.763 188.609 64.112 188.609 64.5391C188.609 65.0234 188.466 65.4635 188.18 65.8594C187.898 66.2552 187.466 66.5703 186.883 66.8047C186.299 67.0391 185.557 67.1562 184.656 67.1562C184.224 67.1562 183.812 67.1328 183.422 67.0859C183.036 67.0443 182.685 66.9844 182.367 66.9062C182.049 66.8229 181.773 66.724 181.539 66.6094V65.0312C181.898 65.2031 182.333 65.3594 182.844 65.5C183.354 65.6354 183.901 65.7031 184.484 65.7031C184.917 65.7031 185.307 65.6641 185.656 65.5859C186.01 65.5026 186.289 65.3672 186.492 65.1797C186.701 64.9922 186.805 64.7422 186.805 64.4297C186.805 64.1432 186.714 63.9062 186.531 63.7188C186.349 63.5312 186.076 63.3932 185.711 63.3047C185.346 63.2109 184.885 63.1641 184.328 63.1641H183.297V61.8125H184.203C184.969 61.8125 185.568 61.7292 186 61.5625C186.438 61.3906 186.656 61.0938 186.656 60.6719C186.656 60.3177 186.503 60.0521 186.195 59.875C185.888 59.6979 185.417 59.6094 184.781 59.6094C184.344 59.6094 183.911 59.6589 183.484 59.7578C183.057 59.8516 182.63 59.987 182.203 60.1641L181.625 58.8125C182.099 58.6198 182.607 58.4688 183.148 58.3594C183.69 58.2448 184.297 58.1875 184.969 58.1875ZM193.984 58.1875C195.078 58.1875 195.904 58.4297 196.461 58.9141C197.023 59.3984 197.305 60.1536 197.305 61.1797V67H196L195.648 65.7734H195.586C195.341 66.0859 195.089 66.3438 194.828 66.5469C194.568 66.75 194.266 66.901 193.922 67C193.583 67.1042 193.169 67.1562 192.68 67.1562C192.164 67.1562 191.703 67.0625 191.297 66.875C190.891 66.6823 190.57 66.3906 190.336 66C190.102 65.6094 189.984 65.1146 189.984 64.5156C189.984 63.625 190.315 62.9557 190.977 62.5078C191.643 62.0599 192.648 61.8125 193.992 61.7656L195.492 61.7109V61.2578C195.492 60.6589 195.352 60.2318 195.07 59.9766C194.794 59.7214 194.404 59.5938 193.898 59.5938C193.466 59.5938 193.047 59.6562 192.641 59.7812C192.234 59.9062 191.839 60.0599 191.453 60.2422L190.859 58.9453C191.281 58.7214 191.76 58.5391 192.297 58.3984C192.839 58.2578 193.401 58.1875 193.984 58.1875ZM195.484 62.8672L194.367 62.9062C193.451 62.9375 192.807 63.0938 192.438 63.375C192.068 63.6562 191.883 64.0417 191.883 64.5312C191.883 64.9583 192.01 65.2708 192.266 65.4688C192.521 65.6615 192.857 65.7578 193.273 65.7578C193.909 65.7578 194.435 65.5781 194.852 65.2188C195.273 64.8542 195.484 64.3203 195.484 63.6172V62.8672ZM201.641 58.3516V62.7656C201.641 62.9062 201.635 63.0859 201.625 63.3047C201.62 63.5182 201.609 63.7422 201.594 63.9766C201.578 64.2057 201.562 64.4167 201.547 64.6094C201.531 64.8021 201.518 64.9453 201.508 65.0391L205.859 58.3516H208.094V67H206.336V62.6328C206.336 62.4036 206.341 62.138 206.352 61.8359C206.367 61.5339 206.383 61.2422 206.398 60.9609C206.419 60.6797 206.432 60.4661 206.438 60.3203L202.102 67H199.875V58.3516H201.641ZM207.445 54.7109C207.393 55.2474 207.247 55.7109 207.008 56.1016C206.773 56.487 206.417 56.7839 205.938 56.9922C205.458 57.2005 204.828 57.3047 204.047 57.3047C203.24 57.3047 202.602 57.2057 202.133 57.0078C201.664 56.8047 201.326 56.5104 201.117 56.125C200.909 55.7344 200.784 55.263 200.742 54.7109H202.414C202.466 55.2891 202.617 55.6797 202.867 55.8828C203.117 56.0807 203.521 56.1797 204.078 56.1797C204.557 56.1797 204.94 56.0729 205.227 55.8594C205.518 55.6458 205.693 55.263 205.75 54.7109H207.445ZM212.578 58.3516V61.8281H216.625V58.3516H218.469V67H216.625V63.2656H212.578V67H210.734V58.3516H212.578ZM219.789 58.3516H221.789L223.562 63.2891C223.641 63.513 223.711 63.7344 223.773 63.9531C223.841 64.1667 223.898 64.3776 223.945 64.5859C223.997 64.7943 224.039 65.0026 224.07 65.2109H224.117C224.169 64.9401 224.242 64.638 224.336 64.3047C224.435 63.9661 224.544 63.6276 224.664 63.2891L226.367 58.3516H228.344L224.633 68.1875C224.419 68.75 224.156 69.2292 223.844 69.625C223.536 70.026 223.172 70.3281 222.75 70.5312C222.328 70.7396 221.846 70.8438 221.305 70.8438C221.044 70.8438 220.818 70.8281 220.625 70.7969C220.432 70.7708 220.268 70.7422 220.133 70.7109V69.2422C220.242 69.2682 220.38 69.2917 220.547 69.3125C220.714 69.3333 220.885 69.3438 221.062 69.3438C221.391 69.3438 221.674 69.2786 221.914 69.1484C222.154 69.0182 222.357 68.8333 222.523 68.5938C222.69 68.3594 222.828 68.0911 222.938 67.7891L223.242 66.9766L219.789 58.3516ZM235.648 58.3516V67H233.812V58.3516H235.648ZM234.742 55.0391C235.023 55.0391 235.266 55.1146 235.469 55.2656C235.677 55.4167 235.781 55.6771 235.781 56.0469C235.781 56.4115 235.677 56.6719 235.469 56.8281C235.266 56.9792 235.023 57.0547 234.742 57.0547C234.451 57.0547 234.203 56.9792 234 56.8281C233.802 56.6719 233.703 56.4115 233.703 56.0469C233.703 55.6771 233.802 55.4167 234 55.2656C234.203 55.1146 234.451 55.0391 234.742 55.0391ZM240.125 58.3516V61.8281H244.172V58.3516H246.016V67H244.172V63.2656H240.125V67H238.281V58.3516H240.125ZM255.172 59.7969H252.328V67H250.5V59.7969H247.672V58.3516H255.172V59.7969ZM260.289 58.1875C261.06 58.1875 261.721 58.3464 262.273 58.6641C262.826 58.9818 263.25 59.4323 263.547 60.0156C263.844 60.599 263.992 61.2969 263.992 62.1094V63.0938H258.219C258.24 63.9323 258.464 64.5781 258.891 65.0312C259.323 65.4844 259.927 65.7109 260.703 65.7109C261.255 65.7109 261.75 65.6589 262.188 65.5547C262.63 65.4453 263.086 65.2865 263.555 65.0781V66.5703C263.122 66.7734 262.682 66.9219 262.234 67.0156C261.786 67.1094 261.25 67.1562 260.625 67.1562C259.776 67.1562 259.029 66.9922 258.383 66.6641C257.742 66.3307 257.24 65.8359 256.875 65.1797C256.516 64.5234 256.336 63.7083 256.336 62.7344C256.336 61.7656 256.5 60.9427 256.828 60.2656C257.156 59.5885 257.617 59.0729 258.211 58.7188C258.805 58.3646 259.497 58.1875 260.289 58.1875ZM260.289 59.5703C259.711 59.5703 259.242 59.7578 258.883 60.1328C258.529 60.5078 258.32 61.0573 258.258 61.7812H262.195C262.19 61.349 262.117 60.9661 261.977 60.6328C261.841 60.2995 261.633 60.0391 261.352 59.8516C261.076 59.6641 260.721 59.5703 260.289 59.5703ZM270.5 58.1875C271.526 58.1875 272.349 58.5625 272.969 59.3125C273.594 60.0625 273.906 61.1771 273.906 62.6562C273.906 63.6354 273.76 64.4609 273.469 65.1328C273.182 65.7995 272.779 66.3047 272.258 66.6484C271.742 66.987 271.141 67.1562 270.453 67.1562C270.016 67.1562 269.635 67.099 269.312 66.9844C268.99 66.8698 268.714 66.7214 268.484 66.5391C268.255 66.3516 268.062 66.1484 267.906 65.9297H267.797C267.823 66.138 267.846 66.3698 267.867 66.625C267.893 66.875 267.906 67.1042 267.906 67.3125V70.8359H266.062V58.3516H267.562L267.82 59.5469H267.906C268.068 59.3021 268.263 59.0755 268.492 58.8672C268.727 58.6589 269.008 58.4948 269.336 58.375C269.669 58.25 270.057 58.1875 270.5 58.1875ZM270.008 59.6875C269.503 59.6875 269.096 59.7891 268.789 59.9922C268.487 60.1901 268.266 60.4896 268.125 60.8906C267.99 61.2917 267.917 61.7943 267.906 62.3984V62.6562C267.906 63.2969 267.971 63.8411 268.102 64.2891C268.237 64.7318 268.458 65.0703 268.766 65.3047C269.078 65.5339 269.5 65.6484 270.031 65.6484C270.479 65.6484 270.849 65.526 271.141 65.2812C271.438 65.0365 271.659 64.6875 271.805 64.2344C271.951 63.7812 272.023 63.2474 272.023 62.6328C272.023 61.7005 271.857 60.9766 271.523 60.4609C271.195 59.9453 270.69 59.6875 270.008 59.6875ZM277.562 55.5781L277.25 59.7031H276.07L275.766 55.5781H277.562ZM283.633 67.1562C282.784 67.1562 282.042 67 281.406 66.6875C280.776 66.375 280.286 65.8932 279.938 65.2422C279.589 64.5859 279.414 63.7448 279.414 62.7188C279.414 61.6198 279.594 60.7396 279.953 60.0781C280.312 59.4115 280.812 58.9297 281.453 58.6328C282.094 58.3359 282.831 58.1875 283.664 58.1875C284.117 58.1875 284.565 58.2344 285.008 58.3281C285.451 58.4219 285.854 58.5469 286.219 58.7031L285.688 60.0859C285.339 59.9505 284.984 59.8411 284.625 59.7578C284.271 59.6745 283.935 59.6328 283.617 59.6328C283.154 59.6328 282.76 59.7188 282.438 59.8906C282.115 60.0573 281.862 60.3099 281.68 60.6484C281.497 60.987 281.378 61.4115 281.32 61.9219H285.133V63.25H281.312C281.354 63.7969 281.461 64.2526 281.633 64.6172C281.805 64.9818 282.049 65.2552 282.367 65.4375C282.69 65.6198 283.086 65.7109 283.555 65.7109C284.044 65.7109 284.484 65.6589 284.875 65.5547C285.271 65.4505 285.656 65.3203 286.031 65.1641V66.6406C285.693 66.8125 285.331 66.9401 284.945 67.0234C284.565 67.112 284.128 67.1562 283.633 67.1562ZM292.5 58.1875C293.526 58.1875 294.349 58.5625 294.969 59.3125C295.594 60.0625 295.906 61.1771 295.906 62.6562C295.906 63.6354 295.76 64.4609 295.469 65.1328C295.182 65.7995 294.779 66.3047 294.258 66.6484C293.742 66.987 293.141 67.1562 292.453 67.1562C292.016 67.1562 291.635 67.099 291.312 66.9844C290.99 66.8698 290.714 66.7214 290.484 66.5391C290.255 66.3516 290.062 66.1484 289.906 65.9297H289.797C289.823 66.138 289.846 66.3698 289.867 66.625C289.893 66.875 289.906 67.1042 289.906 67.3125V70.8359H288.062V58.3516H289.562L289.82 59.5469H289.906C290.068 59.3021 290.263 59.0755 290.492 58.8672C290.727 58.6589 291.008 58.4948 291.336 58.375C291.669 58.25 292.057 58.1875 292.5 58.1875ZM292.008 59.6875C291.503 59.6875 291.096 59.7891 290.789 59.9922C290.487 60.1901 290.266 60.4896 290.125 60.8906C289.99 61.2917 289.917 61.7943 289.906 62.3984V62.6562C289.906 63.2969 289.971 63.8411 290.102 64.2891C290.237 64.7318 290.458 65.0703 290.766 65.3047C291.078 65.5339 291.5 65.6484 292.031 65.6484C292.479 65.6484 292.849 65.526 293.141 65.2812C293.438 65.0365 293.659 64.6875 293.805 64.2344C293.951 63.7812 294.023 63.2474 294.023 62.6328C294.023 61.7005 293.857 60.9766 293.523 60.4609C293.195 59.9453 292.69 59.6875 292.008 59.6875ZM296.727 58.3516H298.727L300.5 63.2891C300.578 63.513 300.648 63.7344 300.711 63.9531C300.779 64.1667 300.836 64.3776 300.883 64.5859C300.935 64.7943 300.977 65.0026 301.008 65.2109H301.055C301.107 64.9401 301.18 64.638 301.273 64.3047C301.372 63.9661 301.482 63.6276 301.602 63.2891L303.305 58.3516H305.281L301.57 68.1875C301.357 68.75 301.094 69.2292 300.781 69.625C300.474 70.026 300.109 70.3281 299.688 70.5312C299.266 70.7396 298.784 70.8438 298.242 70.8438C297.982 70.8438 297.755 70.8281 297.562 70.7969C297.37 70.7708 297.206 70.7422 297.07 70.7109V69.2422C297.18 69.2682 297.318 69.2917 297.484 69.3125C297.651 69.3333 297.823 69.3438 298 69.3438C298.328 69.3438 298.612 69.2786 298.852 69.1484C299.091 69.0182 299.294 68.8333 299.461 68.5938C299.628 68.3594 299.766 68.0911 299.875 67.7891L300.18 66.9766L296.727 58.3516Z" fill="#FEFEFE"/>
<path d="M26.853 22.5927L29.8502 32.7834H5.94696L9.01916 22.5927H26.853Z" fill="#FEFEFE"/>
<path d="M11.4169 34.6566L21.6826 37.1294L9.76841 57.8106L2.5 50.0926L11.4169 34.6566Z" fill="#FEFEFE"/>
<path d="M14.1144 54.064L21.3827 46.346L33.3719 67.0273L23.0312 69.5L14.1144 54.064Z" fill="#FEFEFE"/>
<path d="M50.0819 61.3324H32.2481L29.2508 51.2166H53.1541" fill="#FEFEFE"/>
<path d="M56.6008 33.8325L47.6839 49.3434L37.4183 46.8706L49.3324 26.1894" fill="#FEFEFE"/>
<path d="M44.9862 29.936L37.7179 37.654L25.7288 16.8978L36.0694 14.5L44.9862 29.936Z" fill="#FEFEFE"/>
</svg>
