<svg width="20" height="21" viewBox="0 0 20 21" fill="none" xmlns="http://www.w3.org/2000/svg">
<path d="M14.7558 10.7442C14.43 10.4184 13.9033 10.4184 13.5775 10.7442L12.2492 12.0725C11.6333 11.8892 10.4842 11.4725 9.75585 10.7442C9.02751 10.0159 8.61085 8.86671 8.42751 8.25088L9.75585 6.92254C10.0817 6.59671 10.0817 6.07005 9.75585 5.74421L6.42251 2.41088C6.09668 2.08505 5.57001 2.08505 5.24418 2.41088L2.98418 4.67088C2.66751 4.98755 2.48918 5.42255 2.49585 5.86671C2.51501 7.05338 2.82918 11.175 6.07751 14.4234C9.32585 17.6717 13.4475 17.985 14.635 18.005C14.6392 18.005 14.6542 18.005 14.6583 18.005C15.0983 18.005 15.5142 17.8317 15.8292 17.5167L18.0892 15.2567C18.415 14.9309 18.415 14.4042 18.0892 14.0784L14.7558 10.7442ZM14.65 16.3375C13.61 16.32 10.0517 16.0409 7.25585 13.2442C4.45085 10.4392 4.17918 6.86838 4.16251 5.84921L5.83335 4.17838L7.98835 6.33338L6.91085 7.41088C6.71168 7.60921 6.62668 7.89588 6.68418 8.17088C6.70418 8.26671 7.19335 10.5392 8.57668 11.9225C9.96001 13.3059 12.2325 13.795 12.3283 13.815C12.6058 13.8742 12.89 13.7884 13.0883 13.5892L14.1667 12.5117L16.3217 14.6667L14.65 16.3375Z" fill="#051951"/>
</svg>
