<svg width="97" height="97" viewBox="0 0 97 97" fill="none" xmlns="http://www.w3.org/2000/svg">
<g clip-path="url(#clip0_0_159)">
<path d="M93.6957 23.402H77.7314C81.8586 17.7917 81.2797 10.2914 76.5674 5.30371C67.5402 -4.2461 53.6942 0.206516 48.5 10.0911C43.0962 -0.194 29.0186 -3.77987 20.8706 4.84061C15.1101 10.936 15.5263 18.3142 19.2686 23.402H3.30426C1.48003 23.402 0 24.8038 0 26.5311V46.3378C0 48.0651 1.48003 49.4669 3.30426 49.4669H8.10106V93.871C8.10106 95.6013 9.5811 97 11.4022 97H85.6009C87.4252 97 88.9021 95.5982 88.9021 93.871V49.47H93.6989C95.5231 49.47 97.0031 48.0682 97.0031 46.341V26.5342C97 24.8038 95.52 23.402 93.6957 23.402ZM53.1372 16.8686C54.3419 7.96652 65.2622 2.72852 71.2105 9.01787L71.6486 9.48097C76.7239 14.8504 72.6812 23.402 65.0839 23.402H52.2517L53.1372 16.8686ZM57.9997 54.1948C49.2666 50.1427 49.5232 50.1427 48.5 50.1427C47.4799 50.1427 47.7365 50.1427 39.0003 54.1948V29.6632H57.9966L57.9997 54.1948ZM25.3514 9.4841L25.7895 9.021C31.7597 2.70661 42.6612 7.99155 43.8628 16.8717L44.7483 23.4052H31.9161C24.3063 23.402 20.2855 14.841 25.3514 9.4841ZM6.60539 29.6632H32.3949V43.2088H6.60539V29.6632ZM14.7033 49.4669H32.3949V59.2107C32.3949 61.3447 34.7072 63.1564 37.3575 61.9267V90.7419H14.7033V49.4669ZM82.2967 90.7419H59.6425V69.2236C59.6425 67.4932 58.1625 66.0945 56.3414 66.0945C54.5171 66.0945 53.0371 67.4964 53.0371 69.2236V90.7419H43.966V58.8602L48.5 56.7544C60.891 62.5056 60.2558 62.3397 61.3009 62.3397C63.1251 62.3397 64.6051 60.9379 64.6051 59.2107V49.4669H82.2967V90.7419ZM90.3946 43.2088H64.6051V29.6632H90.3946V43.2088Z" fill="#051951"/>
</g>
<defs>
<clipPath id="clip0_0_159">
<rect width="97" height="97" fill="white"/>
</clipPath>
</defs>
</svg>
