<svg width="20" height="21" viewBox="0 0 20 21" fill="none" xmlns="http://www.w3.org/2000/svg">
<path d="M10 2.16675C5.40501 2.16675 1.66667 5.90508 1.66667 10.5001C1.66667 15.0951 5.40501 18.8334 10 18.8334C14.595 18.8334 18.3333 15.0951 18.3333 10.5001C18.3333 5.90508 14.595 2.16675 10 2.16675ZM10 17.1667C6.32417 17.1667 3.33334 14.1759 3.33334 10.5001C3.33334 6.82425 6.32417 3.83341 10 3.83341C13.6758 3.83341 16.6667 6.82425 16.6667 10.5001C16.6667 14.1759 13.6758 17.1667 10 17.1667Z" fill="#051951"/>
<path d="M10.8333 6.33342H9.16667V11.3334H14.1667V9.66675H10.8333V6.33342Z" fill="#051951"/>
</svg>
