<svg width="97" height="97" viewBox="0 0 97 97" fill="none" xmlns="http://www.w3.org/2000/svg">
<g clip-path="url(#clip0_0_157)">
<path d="M76.727 48.6877C73.7131 48.6911 70.8236 49.8898 68.6924 52.0209C66.5613 54.1521 65.3625 57.0416 65.3592 60.0555C65.3625 63.0694 66.5613 65.9589 68.6924 68.0901C70.8236 70.2212 73.7131 71.42 76.727 71.4233H92.829C92.8947 71.4233 92.9574 71.417 93.02 71.4139L93.2077 71.4233C93.7054 71.4237 94.1983 71.326 94.6582 71.1357C95.1181 70.9455 95.536 70.6663 95.8879 70.3143C96.2399 69.9624 96.519 69.5445 96.7093 69.0846C96.8996 68.6247 96.9974 68.1317 96.9969 67.634V37.8895C96.9963 35.4924 96.4266 33.1297 95.3348 30.9957C94.2431 28.8617 92.6604 27.0174 90.7169 25.6143L77.8253 4.4683C77.5654 4.04107 77.2234 3.66953 76.819 3.37522C76.4147 3.0809 75.956 2.86965 75.4696 2.75357C74.9831 2.63749 74.4785 2.61893 73.9849 2.69895C73.4912 2.77898 73.0184 2.95595 72.5936 3.21976L63.0875 9.11486L58.8007 1.85864C58.5453 1.42731 58.207 1.05096 57.8052 0.751232C57.4034 0.451502 56.9462 0.23432 56.46 0.112401C55.9738 -0.00951796 55.4682 -0.0338137 54.9725 0.0408785C54.4769 0.115571 54.0009 0.287765 53.5722 0.547551L17.072 22.7325H11.3678C10.3793 22.7312 9.43041 22.3443 8.72277 21.6542C8.01513 20.9641 7.60458 20.0252 7.57851 19.0371C7.60458 18.049 8.01513 17.11 8.72277 16.4199C9.43041 15.7298 10.3793 15.343 11.3678 15.3417H18.3768C19.3817 15.3417 20.3456 14.9424 21.0562 14.2318C21.7668 13.5212 22.1661 12.5573 22.1661 11.5524C22.1661 10.5474 21.7668 9.58361 21.0562 8.87298C20.3456 8.16236 19.3817 7.7631 18.3768 7.7631H11.3678C8.81202 7.76703 6.33188 8.63043 4.3262 10.2144C2.32051 11.7984 0.905874 14.011 0.309771 16.4963C0.105895 16.9697 0.000500764 17.4797 0 17.9951V81.843C0.00496811 85.8614 1.60347 89.7137 4.44489 92.5551C7.28631 95.3965 11.1386 96.995 15.157 97H81.846C85.0273 97.0032 88.1288 96.0044 90.7102 94.1452C93.2917 92.2861 95.2219 89.6612 96.2271 86.6429C96.3845 86.1708 96.4474 85.6722 96.4122 85.1758C96.3769 84.6794 96.2442 84.1948 96.0216 83.7497C95.799 83.3045 95.4908 82.9076 95.1148 82.5815C94.7389 82.2554 94.3024 82.0066 93.8303 81.8492C93.3581 81.6918 92.8596 81.6291 92.3632 81.6643C91.8667 81.6996 91.3822 81.8323 90.9371 82.0549C90.492 82.2775 90.095 82.5855 89.7689 82.9615C89.4428 83.3374 89.194 83.774 89.0367 84.2461C88.5343 85.7554 87.5691 87.068 86.2783 87.9976C84.9876 88.9272 83.4367 89.4265 81.846 89.4247H15.157C13.1478 89.4222 11.2217 88.6229 9.80095 87.2022C8.38024 85.7815 7.58099 83.8553 7.57851 81.8462V29.6663C8.76441 30.0856 10.0379 30.3172 11.3678 30.3172H81.843C83.8522 30.3197 85.7783 31.1189 87.199 32.5396C88.6198 33.9603 89.419 35.8865 89.4215 37.8957V48.694H76.727V48.6877ZM72.9408 60.0555C72.9408 57.9653 74.6398 56.2663 76.73 56.2663H89.4245V63.8448H76.73C75.7253 63.8439 74.7622 63.4445 74.0517 62.734C73.3413 62.0236 72.9416 61.0602 72.9408 60.0555ZM73.3445 11.6713L80.0875 22.7325H71.1385L66.9488 15.6389L73.3445 11.6713ZM54.2292 9.01784L58.2626 15.8454C58.3408 16.0332 58.4284 16.2147 58.538 16.3931C58.6193 16.5245 58.7132 16.6496 58.807 16.7685L62.3304 22.7325H31.6596L54.2292 9.01784Z" fill="#051951"/>
</g>
<defs>
<clipPath id="clip0_0_157">
<rect width="97" height="97" fill="white"/>
</clipPath>
</defs>
</svg>
